<?xml version="1.0" standalone="no"?>
<!DOCTYPE svg PUBLIC "-//W3C//DTD SVG 20010904//EN"
 "http://www.w3.org/TR/2001/REC-SVG-20010904/DTD/svg10.dtd">
<svg version="1.0" xmlns="http://www.w3.org/2000/svg"
 width="339.000000pt" height="329.000000pt" viewBox="0 0 339.000000 329.000000"
 preserveAspectRatio="xMidYMid meet">

<g transform="translate(0.000000,329.000000) scale(0.100000,-0.100000)"
fill="#000000" stroke="none">
<path d="M1545 3264 c-225 -31 -341 -60 -490 -120 -527 -216 -889 -645 -1006
-1194 -33 -152 -33 -448 0 -600 146 -684 672 -1176 1391 -1302 99 -17 431 -17
530 0 267 47 507 142 712 284 358 247 588 593 679 1018 33 152 33 448 0 600
-143 673 -664 1168 -1362 1296 -80 15 -390 27 -454 18z m-427 -1009 c122 -29
234 -108 290 -205 14 -25 27 -46 28 -48 1 -2 22 12 48 31 70 54 134 72 252 72
98 -1 105 -2 178 -39 145 -74 216 -201 216 -386 0 -171 -80 -313 -211 -378
-147 -71 -358 -45 -468 58 l-35 32 -18 -23 c-75 -96 -148 -149 -253 -182 -65
-21 -89 -22 -360 -22 l-290 0 -3 553 -2 552 282 0 c214 0 298 -4 346 -15z
m2007 -195 l0 -85 -167 -3 -168 -2 -1 -560 c-1 -308 -2 -566 -3 -572 -1 -9
-32 -14 -108 -16 l-108 -3 0 576 0 575 -205 0 -205 0 0 90 0 90 483 -2 482 -3
0 -85z m-770 -490 l0 -375 -97 -3 -98 -3 0 381 0 381 98 -3 97 -3 0 -375z"/>
<path d="M745 2059 c-3 -8 -4 -165 -3 -349 l3 -335 124 -3 c163 -4 218 12 282
77 75 78 103 201 80 349 -21 133 -83 216 -186 248 -70 22 -293 32 -300 13z"/>
<path d="M1678 1951 c-55 -11 -104 -50 -135 -106 -26 -47 -28 -58 -28 -165 0
-108 2 -118 28 -163 15 -26 47 -60 69 -75 35 -23 52 -27 112 -27 80 0 127 22
171 79 36 48 59 147 51 226 -13 127 -72 207 -166 229 -50 12 -50 12 -102 2z"/>
</g>
</svg>
